# xmcd CD database file
#
# Track frame offsets:
#	150
#	16265
#	32955
#	49445
#	69655
#	84667
#	98330
#	121527
#	131477
#	149942
#	166745
#
# Disc length: 2380 seconds
#
# Revision: 1
# Processed by: cddbd v1.5PL3 Copyright (c) Steve Scherf et al.
# Submitted via: CDex 1.50
#
DISCID=92094a0b
DTITLE=Dave Carter and Tracy Grammer - Tanglewood Tree
DYEAR=2000
DGENRE=Country
TTITLE0=Happytown (All Right With Me)
TTITLE1=Tanglewood Tree
TTITLE2=The Mountain
TTITLE3=Farewell to Saint Dolores
TTITLE4=Hey Conductor
TTITLE5=Crocodile Man
TTITLE6=Walkin' Away From Caroline
TTITLE7=Farewell to Fiddler's Rim
TTITLE8=Cat-Eye Willie Claims His Lover
TTITLE9=Cowboy Singer
TTITLE10=Farewell to Bitterroot Valley
EXTD=YEAR: 2000
EXTT0=
EXTT1=
EXTT2=
EXTT3=
EXTT4=
EXTT5=
EXTT6=
EXTT7=
EXTT8=
EXTT9=
EXTT10=
PLAYORDER=
